<mxfile host="app.diagrams.net" agent="Mozilla/5.0 (Windows NT 10.0; Win64; x64) AppleWebKit/537.36 (KHTML, like Gecko) Chrome/130.0.0.0 Safari/537.36 OPR/115.0.0.0" version="26.0.8">
  <diagram name="Page-1" id="yb_DkEze5VNRl5PxjooL">
    <mxGraphModel grid="1" page="1" gridSize="10" guides="1" tooltips="1" connect="1" arrows="1" fold="1" pageScale="1" pageWidth="827" pageHeight="1169" math="0" shadow="0">
      <root>
        <mxCell id="0" />
        <mxCell id="1" parent="0" />
        <mxCell id="mXWwPpdJeOzUtgQ3R5AJ-3" style="edgeStyle=orthogonalEdgeStyle;rounded=0;orthogonalLoop=1;jettySize=auto;html=1;" edge="1" parent="1" source="mXWwPpdJeOzUtgQ3R5AJ-1" target="mXWwPpdJeOzUtgQ3R5AJ-2">
          <mxGeometry relative="1" as="geometry" />
        </mxCell>
        <mxCell id="mXWwPpdJeOzUtgQ3R5AJ-1" value="Start" style="ellipse;whiteSpace=wrap;html=1;" vertex="1" parent="1">
          <mxGeometry x="354" y="70" width="120" height="80" as="geometry" />
        </mxCell>
        <mxCell id="mXWwPpdJeOzUtgQ3R5AJ-5" style="edgeStyle=orthogonalEdgeStyle;rounded=0;orthogonalLoop=1;jettySize=auto;html=1;entryX=0.5;entryY=0;entryDx=0;entryDy=0;" edge="1" parent="1" source="mXWwPpdJeOzUtgQ3R5AJ-2" target="mXWwPpdJeOzUtgQ3R5AJ-4">
          <mxGeometry relative="1" as="geometry" />
        </mxCell>
        <mxCell id="mXWwPpdJeOzUtgQ3R5AJ-2" value="Input str" style="shape=parallelogram;perimeter=parallelogramPerimeter;whiteSpace=wrap;html=1;fixedSize=1;" vertex="1" parent="1">
          <mxGeometry x="354" y="190" width="120" height="60" as="geometry" />
        </mxCell>
        <mxCell id="mXWwPpdJeOzUtgQ3R5AJ-7" style="edgeStyle=orthogonalEdgeStyle;rounded=0;orthogonalLoop=1;jettySize=auto;html=1;entryX=0.5;entryY=0;entryDx=0;entryDy=0;" edge="1" parent="1" source="mXWwPpdJeOzUtgQ3R5AJ-4" target="mXWwPpdJeOzUtgQ3R5AJ-6">
          <mxGeometry relative="1" as="geometry" />
        </mxCell>
        <mxCell id="mXWwPpdJeOzUtgQ3R5AJ-4" value="Find First Non-Whitespace (&lt;code&gt;start&lt;/code&gt;):&lt;div&gt;start = str.find_first_not_of&lt;div&gt;(&quot; \t\n\r&quot;)&lt;/div&gt;&lt;/div&gt;" style="rounded=0;whiteSpace=wrap;html=1;" vertex="1" parent="1">
          <mxGeometry x="324" y="290" width="180" height="60" as="geometry" />
        </mxCell>
        <mxCell id="mXWwPpdJeOzUtgQ3R5AJ-9" style="edgeStyle=orthogonalEdgeStyle;rounded=0;orthogonalLoop=1;jettySize=auto;html=1;entryX=0.5;entryY=0;entryDx=0;entryDy=0;" edge="1" parent="1" source="mXWwPpdJeOzUtgQ3R5AJ-6" target="mXWwPpdJeOzUtgQ3R5AJ-8">
          <mxGeometry relative="1" as="geometry" />
        </mxCell>
        <mxCell id="mXWwPpdJeOzUtgQ3R5AJ-6" value="Find Last Non-Whitespace (&lt;code&gt;end&lt;/code&gt;):&lt;div&gt;end = str.find_last_not_of(&quot; \t\n\r&quot;)&lt;/div&gt;" style="rounded=0;whiteSpace=wrap;html=1;" vertex="1" parent="1">
          <mxGeometry x="321" y="400" width="186" height="60" as="geometry" />
        </mxCell>
        <mxCell id="mXWwPpdJeOzUtgQ3R5AJ-11" style="edgeStyle=orthogonalEdgeStyle;rounded=0;orthogonalLoop=1;jettySize=auto;html=1;exitX=0.5;exitY=1;exitDx=0;exitDy=0;entryX=0.5;entryY=0;entryDx=0;entryDy=0;" edge="1" parent="1" source="mXWwPpdJeOzUtgQ3R5AJ-8" target="mXWwPpdJeOzUtgQ3R5AJ-10">
          <mxGeometry relative="1" as="geometry" />
        </mxCell>
        <mxCell id="mXWwPpdJeOzUtgQ3R5AJ-15" style="edgeStyle=orthogonalEdgeStyle;rounded=0;orthogonalLoop=1;jettySize=auto;html=1;" edge="1" parent="1" source="mXWwPpdJeOzUtgQ3R5AJ-8">
          <mxGeometry relative="1" as="geometry">
            <mxPoint x="414" y="705" as="targetPoint" />
          </mxGeometry>
        </mxCell>
        <mxCell id="mXWwPpdJeOzUtgQ3R5AJ-17" style="edgeStyle=orthogonalEdgeStyle;rounded=0;orthogonalLoop=1;jettySize=auto;html=1;" edge="1" parent="1" source="mXWwPpdJeOzUtgQ3R5AJ-8">
          <mxGeometry relative="1" as="geometry">
            <mxPoint x="420" y="780" as="targetPoint" />
            <Array as="points">
              <mxPoint x="700" y="565" />
              <mxPoint x="700" y="780" />
            </Array>
          </mxGeometry>
        </mxCell>
        <mxCell id="mXWwPpdJeOzUtgQ3R5AJ-8" value=" Check if Entire String is Whitespace:&lt;div&gt;start == string::npos?&lt;/div&gt;" style="rhombus;whiteSpace=wrap;html=1;" vertex="1" parent="1">
          <mxGeometry x="327" y="490" width="174" height="150" as="geometry" />
        </mxCell>
        <mxCell id="mXWwPpdJeOzUtgQ3R5AJ-13" style="edgeStyle=orthogonalEdgeStyle;rounded=0;orthogonalLoop=1;jettySize=auto;html=1;entryX=0.5;entryY=0;entryDx=0;entryDy=0;" edge="1" parent="1" source="mXWwPpdJeOzUtgQ3R5AJ-10" target="mXWwPpdJeOzUtgQ3R5AJ-12">
          <mxGeometry relative="1" as="geometry" />
        </mxCell>
        <mxCell id="mXWwPpdJeOzUtgQ3R5AJ-10" value="Return str.substr(start, end - start + 1)" style="rounded=0;whiteSpace=wrap;html=1;" vertex="1" parent="1">
          <mxGeometry x="329" y="680" width="170" height="70" as="geometry" />
        </mxCell>
        <mxCell id="mXWwPpdJeOzUtgQ3R5AJ-12" value="End" style="ellipse;whiteSpace=wrap;html=1;" vertex="1" parent="1">
          <mxGeometry x="354" y="800" width="120" height="80" as="geometry" />
        </mxCell>
        <mxCell id="mXWwPpdJeOzUtgQ3R5AJ-18" value="False" style="text;html=1;align=center;verticalAlign=middle;resizable=0;points=[];autosize=1;strokeColor=none;fillColor=none;" vertex="1" parent="1">
          <mxGeometry x="525" y="538" width="50" height="30" as="geometry" />
        </mxCell>
        <mxCell id="mXWwPpdJeOzUtgQ3R5AJ-19" value="True" style="text;html=1;align=center;verticalAlign=middle;resizable=0;points=[];autosize=1;strokeColor=none;fillColor=none;" vertex="1" parent="1">
          <mxGeometry x="410" y="640" width="50" height="30" as="geometry" />
        </mxCell>
      </root>
    </mxGraphModel>
  </diagram>
</mxfile>
